<?xml version="1.0" standalone="no"?>
<!DOCTYPE svg PUBLIC "-//W3C//DTD SVG 20010904//EN"
 "http://www.w3.org/TR/2001/REC-SVG-20010904/DTD/svg10.dtd">
<svg version="1.0" xmlns="http://www.w3.org/2000/svg"
 width="865.000000pt" height="844.000000pt" viewBox="0 0 865.000000 844.000000"
 preserveAspectRatio="xMidYMid meet">
<metadata>
Created by potrace 1.16, written by Peter Selinger 2001-2019
</metadata>
<g transform="translate(0.000000,844.000000) scale(0.100000,-0.100000)"
fill="#000000" stroke="none">
<path d="M3756 7329 c-234 -25 -540 -94 -761 -174 -195 -69 -485 -216 -660
-333 -193 -129 -289 -206 -454 -367 -611 -594 -945 -1349 -978 -2210 -13 -341
45 -730 162 -1088 162 -494 439 -934 832 -1318 489 -479 1132 -783 1823 -863
156 -18 486 -21 641 -6 1279 127 2365 1024 2728 2254 45 151 83 334 108 516
24 175 24 623 0 805 -82 617 -302 1143 -675 1612 -100 126 -340 369 -462 469
-472 387 -1040 627 -1655 699 -140 16 -510 19 -649 4z m-656 -1094 c17 -9 30
-22 30 -31 0 -19 30 -30 105 -38 148 -18 406 -89 571 -159 41 -18 72 -24 100
-22 99 10 133 12 132 6 -1 -3 13 -30 32 -59 29 -46 37 -52 59 -48 188 38 520
32 721 -13 49 -11 51 -1 8 33 -40 31 -32 34 16 5 23 -13 43 -18 57 -14 42 14
88 -4 107 -40 13 -27 34 -43 92 -71 41 -19 100 -51 130 -69 51 -31 61 -33 111
-28 53 5 56 4 82 -27 15 -18 27 -44 27 -60 0 -22 18 -45 86 -111 217 -211 364
-464 435 -748 39 -155 39 -155 55 -86 44 202 48 233 48 390 1 180 -17 275 -74
402 -26 59 -36 71 -66 82 -32 11 -34 15 -34 57 0 41 -5 49 -63 108 -73 72
-161 134 -250 177 -34 16 -51 26 -37 23 85 -22 246 -128 322 -213 32 -35 51
-48 71 -48 49 0 75 -41 53 -85 -10 -18 -10 -27 0 -43 24 -37 76 -210 90 -295
25 -153 13 -326 -37 -526 l-21 -84 31 -35 c43 -50 42 -92 -4 -144 -34 -38 -35
-40 -35 -126 0 -114 -23 -265 -59 -390 -28 -99 -28 -100 -9 -121 18 -20 18
-24 3 -59 -8 -21 -14 -39 -13 -40 48 -26 58 -38 58 -65 0 -31 -30 -70 -54 -70
-24 0 -66 41 -66 64 0 13 9 35 21 50 18 23 18 26 4 26 -18 0 -54 -37 -55 -56
0 -6 -28 -51 -62 -100 -65 -93 -196 -230 -273 -285 -27 -20 -62 -60 -89 -103
-50 -80 -110 -158 -176 -229 -38 -40 -45 -54 -45 -89 0 -33 -5 -45 -27 -61
-23 -17 -31 -19 -53 -9 -22 10 -29 9 -48 -9 -12 -11 -35 -30 -52 -41 -16 -11
-9 -2 17 21 41 36 47 47 46 78 -2 46 32 77 74 69 24 -5 35 2 78 47 66 68 214
283 182 263 -7 -4 -12 -2 -12 3 0 6 5 11 11 11 16 0 65 115 90 210 22 82 33
259 17 275 -3 3 -26 -14 -50 -38 -72 -75 -139 -128 -151 -121 -7 4 -9 4 -5 -1
4 -4 -7 -18 -25 -30 -19 -14 -34 -19 -38 -13 -4 6 -17 0 -30 -13 -13 -13 -29
-24 -36 -24 -7 0 -19 -9 -28 -20 -16 -20 -16 -20 -6 1 6 12 7 25 3 29 -4 5 -1
5 6 1 8 -5 12 0 12 13 0 10 8 39 19 63 23 54 57 193 66 270 6 48 4 62 -14 91
-27 44 -27 77 0 112 20 24 21 35 16 108 -10 129 -41 233 -82 279 -20 21 -33
43 -30 48 4 6 1 10 -4 10 -14 0 -73 119 -65 132 3 4 2 7 -3 6 -4 -1 -19 4 -33
12 -14 7 -26 13 -27 12 -2 -1 -2 1 0 6 1 4 4 6 7 5 3 -1 14 -4 25 -8 20 -7 20
-6 0 6 -11 7 -36 12 -55 12 -21 0 -26 1 -12 4 13 2 26 11 29 18 4 11 16 6 50
-20 50 -38 58 -41 69 -23 4 6 3 8 -3 5 -5 -3 -10 1 -10 10 0 12 6 10 21 -9 15
-18 35 -28 68 -32 26 -4 58 -16 72 -27 34 -27 44 -84 22 -122 -18 -33 -23 -23
55 -119 26 -31 62 -81 80 -111 24 -39 46 -60 74 -73 35 -16 40 -24 43 -55 2
-23 -3 -42 -12 -52 -13 -13 -13 -23 3 -91 10 -42 21 -79 23 -82 3 -2 13 42 24
98 23 126 27 417 6 486 -24 80 -216 261 -512 482 -192 143 -204 154 -132 113
128 -72 355 -250 512 -399 78 -76 110 -101 110 -87 0 11 -7 28 -15 39 -8 10
-14 24 -15 29 0 6 5 3 10 -5 13 -20 13 -4 0 21 -6 10 -15 19 -21 19 -6 0 -7
-6 -4 -12 4 -7 -9 4 -29 24 -29 31 -36 45 -36 79 0 22 4 48 9 57 13 26 -137
230 -289 392 -97 104 -91 113 10 15 87 -86 207 -228 277 -328 31 -44 55 -58
67 -38 7 11 -24 102 -58 170 -15 29 -26 55 -23 57 3 4 67 -129 95 -197 8 -19
20 -28 47 -33 69 -13 94 -98 55 -183 -17 -39 -18 -46 -5 -78 8 -19 15 -48 15
-66 0 -33 40 -140 87 -234 l29 -57 31 48 c57 90 85 161 74 183 -25 46 6 125
55 137 26 7 26 8 20 61 -10 83 -80 287 -140 409 -69 141 -156 262 -281 392
l-100 104 -30 -16 c-79 -41 -158 11 -142 94 6 28 3 32 -65 72 -88 52 -189 98
-201 91 -5 -3 -6 -10 -4 -17 3 -8 -12 -10 -52 -6 -49 4 -58 9 -76 37 -24 39
-24 39 -150 58 -203 30 -469 29 -615 -4 -34 -8 -32 -9 60 -38 171 -55 368
-144 496 -224 33 -22 63 -39 66 -39 3 0 22 14 43 30 21 17 54 35 74 41 81 24
182 -36 195 -117 11 -64 -14 -113 -102 -195 -206 -191 -823 -815 -828 -836 -4
-13 -1 -36 5 -52 7 -15 206 -223 444 -462 238 -239 442 -447 455 -463 30 -40
31 -136 2 -183 -42 -70 -154 -85 -221 -29 -18 15 -282 274 -586 575 l-553 547
0 44 0 45 260 257 c143 142 260 260 260 263 0 3 -6 5 -13 5 -7 0 -18 5 -25 12
-7 7 -40 10 -86 9 -62 -2 -78 1 -94 17 -11 11 -21 24 -23 30 -5 13 -257 42
-381 43 -51 0 -87 3 -80 6 6 2 10 8 7 13 -3 4 50 11 118 15 113 6 144 4 311
-22 55 -8 40 9 -37 45 -45 21 -72 28 -98 25 -32 -4 -39 -1 -58 26 -25 35 -82
51 -112 32 -35 -21 -77 -13 -115 23 -33 31 -35 36 -22 49 20 21 100 32 126 18
11 -6 34 -25 51 -42 23 -22 38 -30 54 -26 12 3 36 8 53 12 36 8 64 -13 64 -49
0 -36 111 -86 191 -86 60 0 63 -1 102 -42 24 -26 57 -48 81 -55 l40 -12 98 97
c89 87 97 98 82 109 -10 7 -13 13 -7 13 7 0 15 -5 19 -11 4 -7 16 -1 34 16
l28 27 -65 61 c-59 56 -68 61 -104 58 -56 -4 -89 20 -89 63 0 31 -4 35 -48 54
-94 41 -325 99 -422 107 -71 6 -160 8 -163 4 -1 -2 -7 -13 -13 -24 -18 -34
-61 -49 -103 -36 -32 10 -40 8 -86 -20 l-51 -31 11 -56 c8 -39 17 -58 31 -63
17 -7 17 -8 -3 -8 l-23 -1 0 -1023 0 -1024 -23 -43 c-31 -60 -76 -82 -151 -77
-55 3 -62 6 -102 50 l-44 46 0 833 c0 635 -3 837 -12 846 -9 9 -9 12 0 12 17
0 16 127 0 133 -10 4 -10 7 0 18 7 8 12 43 12 97 0 82 0 83 -22 77 l-23 -7 23
17 c19 14 22 25 22 79 0 74 25 121 80 148 63 32 136 22 187 -25 l23 -20 55 37
c46 30 55 41 55 66 0 42 31 70 79 70 21 0 44 -6 51 -15 10 -12 19 -11 63 9 29
12 82 33 120 45 37 13 67 24 67 26 0 2 -6 16 -12 31 l-12 27 -96 -7 c-322 -21
-693 -144 -946 -313 -173 -115 -375 -302 -478 -443 -45 -61 -47 -68 -42 -111
8 -56 -1 -82 -43 -129 -17 -19 -31 -45 -31 -57 0 -16 -5 -21 -20 -18 -15 3
-20 -1 -19 -18 0 -12 3 -16 6 -9 5 13 32 17 34 5 1 -5 3 -18 4 -31 1 -12 4
-24 6 -27 3 -2 31 13 64 34 87 56 295 164 302 158 3 -3 -44 -31 -103 -61 -60
-30 -129 -69 -154 -85 -25 -17 -50 -31 -56 -31 -17 0 -57 -47 -49 -59 3 -6 3
-11 -1 -11 -11 0 -33 34 -34 52 0 9 -4 19 -8 22 -5 3 -8 -5 -8 -17 1 -12 7
-26 14 -30 6 -4 12 -18 11 -30 0 -21 -1 -21 -10 -2 -7 15 -8 9 -3 -20 4 -30 3
-37 -6 -29 -6 6 -14 60 -17 120 -6 108 -6 109 -45 158 -36 46 -38 53 -32 90 4
23 7 50 6 61 -1 12 2 15 6 8 6 -9 17 -9 50 2 30 11 49 12 67 5 41 -16 48 -12
73 31 50 88 201 247 342 363 221 181 518 324 823 396 45 11 150 29 232 40 83
12 150 23 150 23 0 1 8 17 18 35 l18 33 -63 28 c-196 89 -629 193 -651 155
-37 -64 -122 -72 -155 -14 -16 29 -20 30 -87 30 -142 0 -289 -38 -420 -108
-53 -28 -71 -43 -76 -65 -11 -42 -28 -57 -64 -57 -38 0 -79 -41 -167 -165 -96
-135 -174 -327 -149 -366 14 -24 14 -44 -1 -68 -10 -17 3 -94 38 -221 2 -8 -3
1 -12 19 -9 19 -25 71 -35 114 -11 44 -27 90 -36 103 -14 22 -14 26 0 42 8 9
30 62 48 116 45 136 194 380 257 419 9 6 11 19 7 38 -5 20 -1 38 10 56 15 23
22 25 59 20 39 -6 46 -3 82 31 21 21 73 69 114 107 l75 69 -85 -87 c-47 -49
-76 -85 -65 -81 11 4 25 10 30 14 23 17 159 60 235 74 45 9 115 16 155 16 66
0 74 2 80 21 7 20 54 48 83 49 7 0 26 -7 42 -15z m-375 -260 c39 -38 32 -86
-16 -110 -15 -8 -37 -15 -47 -15 -28 0 -60 30 -68 62 -5 22 0 33 24 58 37 37
74 39 107 5z m290 -605 c3 -5 0 -10 -8 -10 -13 0 -49 -14 -106 -43 -15 -7 -28
-26 -34 -46 -11 -45 -30 -62 -75 -68 -32 -4 -44 -13 -70 -52 -18 -26 -47 -82
-66 -124 -41 -95 -53 -110 -27 -35 10 30 40 92 65 137 44 77 46 83 31 104 -22
32 -19 55 15 89 26 25 36 29 63 24 17 -4 38 -13 46 -20 12 -12 22 -9 75 20 65
36 81 40 91 24z m-449 -757 c9 9 34 -46 34 -75 0 -27 -56 -78 -86 -78 -23 0
-41 -25 -48 -65 -5 -29 -32 -83 -53 -104 -25 -26 -32 -51 -8 -31 10 9 15 9 15
1 0 -6 5 -11 12 -11 9 0 9 3 0 12 -16 16 -15 29 2 22 8 -3 17 0 22 7 4 8 3 10
-4 5 -7 -4 -12 -2 -12 3 0 6 7 11 15 11 8 0 15 5 15 11 0 5 -6 7 -12 3 -8 -5
-8 -2 1 10 26 31 53 40 63 22 8 -14 12 -15 26 -4 12 10 14 10 8 0 -4 -6 -21
-19 -37 -27 -19 -10 -27 -20 -22 -28 4 -7 -2 -5 -12 3 -17 14 -18 13 -12 -4 6
-14 0 -27 -19 -47 -25 -26 -27 -35 -25 -101 1 -69 34 -195 54 -209 5 -3 8 -9
8 -13 -3 -20 0 -26 11 -20 7 4 8 3 4 -4 -4 -7 -2 -12 5 -12 7 0 9 -3 6 -7 -4
-3 -16 2 -28 13 -16 14 -20 15 -18 4 1 -8 -2 -26 -8 -39 -9 -23 -10 -22 -33
25 -14 27 -25 67 -26 89 -2 60 -13 97 -39 129 -29 37 -35 33 -117 -83 -59 -82
-60 -86 -49 -118 18 -50 6 -88 -34 -107 -18 -9 -39 -16 -47 -16 -7 0 -19 -12
-26 -28 -29 -59 -89 -211 -111 -283 l-24 -77 22 -23 c11 -12 21 -30 21 -40 0
-24 -39 -69 -60 -69 -14 0 -21 -15 -34 -72 -9 -40 -20 -111 -25 -158 l-10 -85
4 95 c3 52 11 123 18 156 12 56 12 64 -5 84 -10 12 -18 30 -18 39 0 24 29 61
56 71 13 5 24 16 24 23 0 25 71 230 105 304 32 68 33 75 19 102 -26 53 5 110
62 114 24 2 37 16 85 92 42 67 61 89 75 87 14 -2 15 0 6 6 -13 9 -6 46 7 38 4
-3 6 10 6 27 -1 32 -38 121 -54 132 -5 3 -22 40 -39 83 -27 72 -30 94 -22 182
1 8 8 -16 17 -54 8 -39 25 -96 39 -128 14 -33 22 -64 18 -70 -4 -6 -3 -8 3 -5
12 7 33 -34 33 -66 0 -18 2 -19 10 -7 8 12 10 10 10 -10 0 -23 3 -22 40 20 21
25 37 51 34 59 -2 8 1 11 10 8 8 -3 17 0 20 8 3 9 0 12 -10 8 -12 -4 -13 -1
-4 22 15 40 36 66 45 57 4 -4 5 1 2 10 -3 10 -2 20 2 23 5 2 2 24 -7 49 -15
40 -15 45 2 70 9 15 25 30 34 33 9 4 21 13 25 20 7 12 11 11 22 -4 7 -10 17
-15 21 -10z m88 -585 c-10 -29 -14 -60 -10 -95 6 -54 0 -87 -15 -77 -5 3 -6
-1 -3 -9 3 -8 1 -18 -5 -22 -8 -4 -8 -12 0 -26 12 -23 28 -157 21 -176 -2 -7
-9 -10 -15 -6 -6 3 -7 1 -3 -6 4 -6 9 -24 11 -39 3 -22 1 -20 -15 13 -15 31
-20 36 -25 23 -4 -9 -4 -21 -1 -27 4 -5 2 -12 -4 -16 -5 -3 -10 -1 -10 4 0 6
0 13 0 16 0 3 -8 13 -17 23 -17 18 -19 17 -50 -6 -30 -22 -49 -62 -91 -187 -6
-16 -11 -24 -11 -17 -1 7 8 38 18 70 30 89 34 119 21 158 -11 32 -10 39 9 65
12 16 24 42 28 59 6 35 23 50 23 23 1 -13 5 -9 17 12 9 16 16 49 15 72 0 39 4
47 44 79 24 20 44 42 44 49 0 15 28 85 35 85 2 0 -3 -19 -11 -42z m139 -113
c31 -20 32 -24 32 -85 0 -36 4 -71 8 -77 6 -9 3 -11 -7 -7 -9 3 -16 12 -16 20
0 27 -20 14 -21 -13 l-1 -28 -10 32 c-6 19 -19 34 -33 37 -22 6 -45 43 -45 75
0 10 10 31 22 47 13 15 22 39 21 53 -2 24 -1 24 8 -4 6 -16 25 -39 42 -50z
m-1119 -723 c30 -13 42 -52 26 -82 -10 -18 -7 -28 16 -63 30 -45 132 -157 144
-157 4 0 5 11 2 25 -3 16 0 25 8 25 8 0 11 -12 8 -34 -3 -32 0 -36 55 -71 33
-20 57 -39 53 -42 -7 -7 -96 49 -97 62 -1 6 -5 -3 -9 -20 l-8 -30 -1 27 c-1
20 -19 46 -64 91 -35 34 -78 84 -96 110 -23 34 -39 47 -56 47 -30 0 -65 32
-65 60 0 11 9 29 21 41 15 15 19 28 15 47 l-6 27 14 -26 c8 -14 26 -30 40 -37z
m1724 -438 c54 -3 79 -27 83 -78 2 -24 1 -42 -2 -40 -3 2 -15 -3 -25 -11 -41
-31 -121 -5 -125 40 -1 8 -2 27 -4 43 -1 15 -6 36 -10 47 -9 20 -8 20 10 1 23
-23 34 -4 14 23 -8 9 -5 8 6 -4 11 -11 35 -21 53 -21z m-528 -58 c0 -10 11
-12 45 -8 58 6 91 -20 93 -74 1 -20 7 -43 13 -51 11 -12 9 -13 -12 -9 -13 3
-37 0 -54 -7 -26 -12 -34 -11 -62 5 -36 22 -59 73 -42 94 6 8 9 25 7 39 -3 14
-1 25 3 25 5 0 9 -6 9 -14z m1630 -43 c-85 -97 -184 -170 -325 -240 -52 -25
-95 -50 -95 -53 0 -4 10 -12 23 -19 14 -7 15 -9 2 -4 -26 10 -216 10 -274 0
-55 -9 -299 16 -361 37 -25 9 -34 13 -20 11 125 -27 270 -37 383 -27 65 5 124
15 130 21 8 8 8 11 0 11 -19 0 -166 71 -160 77 4 3 12 1 19 -4 30 -24 163 -73
199 -73 93 0 305 112 425 224 74 70 92 83 54 39z m1335 -173 c-3 -6 -19 -17
-36 -25 -24 -13 -29 -22 -29 -51 0 -71 -71 -105 -138 -67 -29 17 -32 17 -69
-1 -49 -23 -160 -64 -243 -88 -236 -68 -526 -80 -803 -33 -101 17 -275 62
-297 77 -17 11 -22 12 145 -32 232 -60 508 -77 732 -45 125 18 321 72 428 119
71 32 81 39 86 67 13 62 79 91 128 57 22 -16 25 -15 60 7 41 27 44 29 36 15z
m-2657 -329 c18 -22 32 -41 32 -43 0 -9 201 -209 238 -237 36 -28 47 -31 70
-24 59 19 104 -11 106 -71 1 -23 10 -41 26 -56 l25 -21 -30 15 c-26 12 -33 12
-50 0 -30 -22 -73 -17 -102 12 -21 21 -25 32 -20 64 5 36 2 42 -37 73 -67 56
-206 198 -250 257 -22 30 -45 58 -51 62 -7 5 -6 8 1 8 6 0 25 -18 42 -39z"/>
<path d="M4065 5825 c-29 -23 -92 -38 -165 -40 -62 -2 -125 -21 -235 -71 l-40
-18 85 -8 c158 -15 285 -40 425 -83 98 -31 144 -41 156 -34 49 26 119 -13 119
-66 0 -15 6 -25 14 -25 7 0 51 -19 96 -41 l82 -41 75 75 75 75 -144 76 c-160
84 -244 120 -393 171 -55 18 -107 36 -115 39 -8 3 -24 -1 -35 -9z"/>
<path d="M5904 4304 c-60 -130 -63 -164 -26 -284 16 -52 35 -121 42 -152 7
-32 16 -58 20 -58 7 0 54 183 70 275 6 33 14 115 17 183 6 115 5 122 -13 122
-10 0 -29 3 -42 6 -20 6 -26 -3 -68 -92z"/>
<path d="M5275 4360 c-4 -11 -2 -35 4 -53 15 -48 41 -194 41 -236 1 -30 6 -40
33 -56 25 -16 33 -28 35 -56 2 -30 -3 -42 -32 -70 -30 -29 -36 -44 -45 -109
-15 -99 -51 -230 -63 -230 -5 0 -6 -5 -3 -10 4 -6 1 -18 -6 -27 -16 -18 -20
-63 -6 -63 5 0 7 6 4 14 -7 17 39 50 55 40 6 -4 8 -3 5 3 -4 6 21 34 54 63
119 103 209 214 209 256 0 7 -12 50 -26 95 -17 55 -34 89 -52 104 -22 19 -27
32 -27 72 0 26 -6 59 -14 73 -24 43 -145 210 -152 210 -4 0 -11 -9 -14 -20z"/>
<path d="M5783 4024 c-113 -192 -159 -304 -174 -426 -14 -118 -34 -206 -64
-279 -13 -32 -21 -60 -18 -62 9 -10 177 160 237 240 96 128 130 190 128 230
-2 22 4 43 14 54 19 21 16 41 -28 181 -44 143 -46 144 -95 62z"/>
</g>
</svg>
